<?xml version="1.0" encoding="utf-8"?>
<!-- Generator: Adobe Illustrator 23.0.1, SVG Export Plug-In . SVG Version: 6.00 Build 0)  -->
<svg version="1.1" id="Layer_1" xmlns="http://www.w3.org/2000/svg" xmlns:xlink="http://www.w3.org/1999/xlink" x="0px" y="0px"
	 viewBox="0 0 83.5 84" style="enable-background:new 0 0 83.5 84;" xml:space="preserve">
<style type="text/css">
	.st0{fill:#231F20;}
</style>
<title>logo</title>
<g>
	<path class="st0" d="M4.1,41.8C4,21.8,19.5,5.2,39.5,4.1v-4C16.5,1.4-1.1,20.9,0.1,43.9c1.1,21.3,18.1,38.3,39.4,39.4v-4.1
		C19.6,78.2,4,61.7,4.1,41.8z"/>
	<path class="st0" d="M35.6,44.4c5.7,0.8,11.2,3.1,15.6,6.8l1-2.2c-4.5-3.6-9.8-6.1-15.4-7.1L35.6,44.4z"/>
	<path class="st0" d="M23.5,71.7c4.6,3.5,10.2,5.6,16,6l1-2.2c-5.8-0.4-11.3-2.5-16-6L23.5,71.7z"/>
	<path class="st0" d="M75.1,66.7c5.4-7.2,8.3-16,8.3-25c0-22.1-17.2-40.3-39.3-41.6V4c20.8,1.4,36.6,19.3,35.2,40.1
		c-0.5,7.7-3.4,15-8.2,21.1l-0.8,1l4.5,9.1L46.4,62l3.6-8.1c-2.3-3.4-13.3-8.9-14.5-9.5l-9.9,22.4c2.5,3.5,14.9,8.6,14.9,8.6
		l4.3-9.8l38.7,18.1L75.1,66.7z"/>
</g>
</svg>
